<svg xmlns="http://www.w3.org/2000/svg" version="1.1" xmlns:xlink="http://www.w3.org/1999/xlink" xmlns:svgjs="http://svgjs.dev/svgjs" width="2000" height="1500" viewBox="0 0 2000 1500"><rect width="2000" height="1500" fill="#000000"></rect><g transform="matrix(0.75,0,0,0.75,249.67638483964993,0.05154664723022506)"><svg viewBox="0 0 343 343" data-background-color="#000000" preserveAspectRatio="xMidYMid meet" height="1999" width="2000" xmlns="http://www.w3.org/2000/svg" xmlns:xlink="http://www.w3.org/1999/xlink"><g id="tight-bounds" transform="matrix(1,0,0,1,0.0740000000000407,0.07400000000001228)"><svg viewBox="0 0 342.85155851775386 342.85155851775386" height="342.85155851775386" width="342.85155851775386"><rect width="342.852" height="342.852" fill="url(#5cbfd51b-1b61-4230-8f46-0d0bb4b82e85)" mask="url(#65ed5e7f-e058-41ac-a161-201b1cac9ab6)" data-fill-palette-color="tertiary"></rect><g><svg></svg></g><g><svg viewBox="0 0 342.85155851775386 342.85155851775386" height="342.85155851775386" width="342.85155851775386"><g><path d="M0 171.426c0-94.676 76.75-171.426 171.426-171.426 94.676 0 171.426 76.75 171.426 171.426 0 94.676-76.75 171.426-171.426 171.426-94.676 0-171.426-76.75-171.426-171.426zM171.426 341.641c94.007 0 170.215-76.208 170.215-170.215 0-94.007-76.208-170.215-170.215-170.216-94.007 0-170.215 76.208-170.216 170.216 0 94.007 76.208 170.215 170.216 170.215z" data-fill-palette-color="tertiary" fill="url(#5cbfd51b-1b61-4230-8f46-0d0bb4b82e85)" stroke="transparent"></path><ellipse rx="164.56874808852186" ry="164.56874808852186" cx="171.42577925887693" cy="171.42577925887693" fill="url(#5cbfd51b-1b61-4230-8f46-0d0bb4b82e85)" stroke="transparent" stroke-width="0" fill-opacity="1" data-fill-palette-color="tertiary"></ellipse></g><g transform="matrix(1,0,0,1,64.84655864529837,140.20256202832408)"><svg viewBox="0 0 213.1584412271571 62.446434461105696" height="62.446434461105696" width="213.1584412271571"><g><svg viewBox="0 0 213.1584412271571 62.446434461105696" height="62.446434461105696" width="213.1584412271571"><g><svg viewBox="0 0 213.1584412271571 62.446434461105696" height="62.446434461105696" width="213.1584412271571"><g transform="matrix(1,0,0,1,0,37.56071540482373)"><svg viewBox="0 0 213.1584412271571 24.885719056281964" height="24.885719056281964" width="213.1584412271571"><g id="textblocktransform"><svg viewBox="0 0 213.1584412271571 24.885719056281964" height="24.885719056281964" width="213.1584412271571" id="textblock"><g><svg viewBox="0 0 213.1584412271571 13.422167730061748" height="13.422167730061748" width="213.1584412271571"><g transform="matrix(1,0,0,1,0,0)"><svg width="213.1584412271571" viewBox="0.75 -33.95 620.9 39.1" height="13.422167730061748" data-palette-color="#000000"><path d="M23.15-16.3L26.35-33.7 31.9-32.8 25.7 0.05 21.25 0.05 13.2-17.15Q12.5-18.55 11.75-20.38 11-22.2 10.35-23.8L10.35-23.8Q10.2-22.2 10-20.43 9.8-18.65 9.5-17.05L9.5-17.05 6.3 0.2 0.75-0.7 6.95-33.45 11.45-33.45 19.3-16.45Q20-15 20.78-13.13 21.55-11.25 22.25-9.65L22.25-9.65Q22.45-11.4 22.68-13.2 22.9-15 23.15-16.3L23.15-16.3ZM33.65 0L40.15-33.45 45.95-33.45 39.45 0 33.65 0ZM75.25 0L77.15-12.75Q77.25-13.5 77.45-14.58 77.65-15.65 77.9-16.93 78.15-18.2 78.42-19.6 78.7-21 78.95-22.3L78.95-22.3Q78.25-21 77.52-19.58 76.8-18.15 76.07-16.88 75.35-15.6 74.75-14.55 74.15-13.5 73.8-12.9L73.8-12.9 66 0 61.95 0 59.1-12.75Q58.95-13.4 58.75-14.48 58.55-15.55 58.3-16.82 58.05-18.1 57.8-19.53 57.55-20.95 57.3-22.25L57.3-22.25Q57.1-20.9 56.9-19.48 56.7-18.05 56.52-16.78 56.35-15.5 56.17-14.48 56-13.45 55.85-12.9L55.85-12.9 53 0.15 47.2-0.7 55.25-33.45 59.95-33.45 64.1-12.8Q64.35-11.5 64.6-10.05 64.85-8.6 65.05-7.15L65.05-7.15Q65.8-8.55 66.55-10 67.3-11.45 68.1-12.8L68.1-12.8 80.25-33.45 84.9-33.45 81.15 0 75.25 0ZM85.34-0.95L103.59-33.45 108.14-33.45 114.54 0 108.44 0 106.99-9 95.79-9 91.04 0.4 85.34-0.95ZM106.39-13.15Q105.69-17.4 105.29-20.88 104.89-24.35 104.64-26.45L104.64-26.45Q103.49-24.25 101.72-20.8 99.94-17.35 97.84-13.15L97.84-13.15 106.39-13.15ZM116.79 0L123.29-33.45 129.09-33.45 123.34-4.2 135.29-4.2 135.29 0 116.79 0ZM176.19-33.95Q176.59-33.25 176.71-32.48 176.84-31.7 176.84-30.95L176.84-30.95Q176.84-28.45 175.59-26.18 174.34-23.9 172.54-22.03 170.74-20.15 168.71-18.8 166.69-17.45 165.14-16.85L165.14-16.85Q165.59-14.9 166.59-12.35 167.59-9.8 168.94-7.15 170.29-4.5 171.89-1.93 173.49 0.65 175.14 2.6L175.14 2.6 170.34 5.15Q167.79 1.9 166.04-0.95 164.29-3.8 162.96-6.58 161.64-9.35 160.59-12.2 159.54-15.05 158.44-18.3L158.44-18.3 158.59-18.65Q160.69-19.4 162.94-20.8 165.19-22.2 167.04-23.88 168.89-25.55 170.09-27.43 171.29-29.3 171.29-31.05L171.29-31.05Q171.29-31.5 171.19-31.95 171.09-32.4 170.99-32.8L170.99-32.8 176.19-33.95ZM148.54 0L155.04-33.45 160.89-33.45 154.39 0 148.54 0ZM182.53-33.45L188.33-33.45 184.33-12.95Q184.03-11.3 184.03-10L184.03-10Q184.03-6.95 185.56-5.33 187.08-3.7 189.78-3.7L189.78-3.7Q191.43-3.7 192.73-4.38 194.03-5.05 195.06-6.28 196.08-7.5 196.78-9.2 197.48-10.9 197.88-12.95L197.88-12.95 201.88-33.45 207.68-33.45 203.63-12.5Q203.13-9.9 202.03-7.55 200.93-5.2 199.08-3.45 197.23-1.7 194.58-0.65 191.93 0.4 188.33 0.4L188.33 0.4Q185.53 0.4 183.58-0.3 181.63-1 180.41-2.25 179.18-3.5 178.63-5.2 178.08-6.9 178.08-8.85L178.08-8.85Q178.08-10.5 178.48-12.5L178.48-12.5 182.53-33.45ZM236.98 0L238.88-12.75Q238.98-13.5 239.18-14.58 239.38-15.65 239.63-16.93 239.88-18.2 240.16-19.6 240.43-21 240.68-22.3L240.68-22.3Q239.98-21 239.26-19.58 238.53-18.15 237.81-16.88 237.08-15.6 236.48-14.55 235.88-13.5 235.53-12.9L235.53-12.9 227.73 0 223.68 0 220.83-12.75Q220.68-13.4 220.48-14.48 220.28-15.55 220.03-16.82 219.78-18.1 219.53-19.53 219.28-20.95 219.03-22.25L219.03-22.25Q218.83-20.9 218.63-19.48 218.43-18.05 218.26-16.78 218.08-15.5 217.91-14.48 217.73-13.45 217.58-12.9L217.58-12.9 214.73 0.15 208.93-0.7 216.98-33.45 221.68-33.45 225.83-12.8Q226.08-11.5 226.33-10.05 226.58-8.6 226.78-7.15L226.78-7.15Q227.53-8.55 228.28-10 229.03-11.45 229.83-12.8L229.83-12.8 241.98-33.45 246.63-33.45 242.88 0 236.98 0ZM247.08-0.95L265.33-33.45 269.88-33.45 276.28 0 270.18 0 268.73-9 257.53-9 252.78 0.4 247.08-0.95ZM268.13-13.15Q267.43-17.4 267.03-20.88 266.63-24.35 266.38-26.45L266.38-26.45Q265.23-24.25 263.45-20.8 261.68-17.35 259.58-13.15L259.58-13.15 268.13-13.15ZM278.28 0L284.78-33.65 289.43-33.25Q290.28-33.45 291.53-33.6 292.78-33.75 294.28-33.75L294.28-33.75Q296.48-33.75 298.3-33.38 300.13-33 301.45-32.15 302.78-31.3 303.5-29.9 304.23-28.5 304.23-26.45L304.23-26.45Q304.23-24 303.5-22.13 302.78-20.25 301.5-18.88 300.23-17.5 298.43-16.63 296.63-15.75 294.53-15.3L294.53-15.3Q295.13-13.35 296.2-10.98 297.28-8.6 298.68-6.2 300.08-3.8 301.65-1.5 303.23 0.8 304.78 2.65L304.78 2.65 300.08 5.15Q297.73 2.15 296.1-0.3 294.48-2.75 293.3-5.05 292.13-7.35 291.2-9.73 290.28-12.1 289.33-14.9L289.33-14.9Q288.78-14.9 288.18-14.9 287.58-14.9 286.93-14.95L286.93-14.95 284.08 0 278.28 0ZM292.73-29.75Q291.88-29.75 291.15-29.7 290.43-29.65 289.78-29.55L289.78-29.55 287.73-18.95 288.73-18.95Q293.23-18.95 295.63-20.33 298.03-21.7 298.03-25.25L298.03-25.25Q298.03-27.25 296.83-28.5 295.63-29.75 292.73-29.75L292.73-29.75ZM305.07 0L311.57-33.65 316.22-33.25Q317.07-33.45 318.32-33.6 319.57-33.75 321.07-33.75L321.07-33.75Q323.27-33.75 325.1-33.38 326.92-33 328.25-32.15 329.57-31.3 330.3-29.9 331.02-28.5 331.02-26.45L331.02-26.45Q331.02-24 330.3-22.13 329.57-20.25 328.3-18.88 327.02-17.5 325.22-16.63 323.42-15.75 321.32-15.3L321.32-15.3Q321.92-13.35 323-10.98 324.07-8.6 325.47-6.2 326.87-3.8 328.45-1.5 330.02 0.8 331.57 2.65L331.57 2.65 326.87 5.15Q324.52 2.15 322.9-0.3 321.27-2.75 320.1-5.05 318.92-7.35 318-9.73 317.07-12.1 316.12-14.9L316.12-14.9Q315.57-14.9 314.97-14.9 314.37-14.9 313.72-14.95L313.72-14.95 310.87 0 305.07 0ZM319.52-29.75Q318.67-29.75 317.95-29.7 317.22-29.65 316.57-29.55L316.57-29.55 314.52-18.95 315.52-18.95Q320.02-18.95 322.42-20.33 324.82-21.7 324.82-25.25L324.82-25.25Q324.82-27.25 323.62-28.5 322.42-29.75 319.52-29.75L319.52-29.75ZM341.17-0.95L359.42-33.45 363.97-33.45 370.37 0 364.27 0 362.82-9 351.62-9 346.87 0.4 341.17-0.95ZM362.22-13.15Q361.52-17.4 361.12-20.88 360.72-24.35 360.47-26.45L360.47-26.45Q359.32-24.25 357.54-20.8 355.77-17.35 353.67-13.15L353.67-13.15 362.22-13.15ZM372.37 0L378.87-33.65 383.52-33.25Q384.37-33.45 385.62-33.6 386.87-33.75 388.37-33.75L388.37-33.75Q390.57-33.75 392.39-33.38 394.22-33 395.54-32.15 396.87-31.3 397.59-29.9 398.32-28.5 398.32-26.45L398.32-26.45Q398.32-24 397.59-22.13 396.87-20.25 395.59-18.88 394.32-17.5 392.52-16.63 390.72-15.75 388.62-15.3L388.62-15.3Q389.22-13.35 390.29-10.98 391.37-8.6 392.77-6.2 394.17-3.8 395.74-1.5 397.32 0.8 398.87 2.65L398.87 2.65 394.17 5.15Q391.82 2.15 390.19-0.3 388.57-2.75 387.39-5.05 386.22-7.35 385.29-9.73 384.37-12.1 383.42-14.9L383.42-14.9Q382.87-14.9 382.27-14.9 381.67-14.9 381.02-14.95L381.02-14.95 378.17 0 372.37 0ZM386.82-29.75Q385.97-29.75 385.24-29.7 384.52-29.65 383.87-29.55L383.87-29.55 381.82-18.95 382.82-18.95Q387.32-18.95 389.72-20.33 392.12-21.7 392.12-25.25L392.12-25.25Q392.12-27.25 390.92-28.5 389.72-29.75 386.82-29.75L386.82-29.75ZM405.86-33.45L411.66-33.45 407.66-12.95Q407.36-11.3 407.36-10L407.36-10Q407.36-6.95 408.89-5.33 410.41-3.7 413.11-3.7L413.11-3.7Q414.76-3.7 416.06-4.38 417.36-5.05 418.39-6.28 419.41-7.5 420.11-9.2 420.81-10.9 421.21-12.95L421.21-12.95 425.21-33.45 431.01-33.45 426.96-12.5Q426.46-9.9 425.36-7.55 424.26-5.2 422.41-3.45 420.56-1.7 417.91-0.65 415.26 0.4 411.66 0.4L411.66 0.4Q408.86 0.4 406.91-0.3 404.96-1 403.74-2.25 402.51-3.5 401.96-5.2 401.41-6.9 401.41-8.85L401.41-8.85Q401.41-10.5 401.81-12.5L401.81-12.5 405.86-33.45ZM454.91-16.3L458.11-33.7 463.66-32.8 457.46 0.05 453.01 0.05 444.96-17.15Q444.26-18.55 443.51-20.38 442.76-22.2 442.11-23.8L442.11-23.8Q441.96-22.2 441.76-20.43 441.56-18.65 441.26-17.05L441.26-17.05 438.06 0.2 432.51-0.7 438.71-33.45 443.21-33.45 451.06-16.45Q451.76-15 452.54-13.13 453.31-11.25 454.01-9.65L454.01-9.65Q454.21-11.4 454.44-13.2 454.66-15 454.91-16.3L454.91-16.3ZM493.06-33.95Q493.46-33.25 493.58-32.48 493.71-31.7 493.71-30.95L493.71-30.95Q493.71-28.45 492.46-26.18 491.21-23.9 489.41-22.03 487.61-20.15 485.58-18.8 483.56-17.45 482.01-16.85L482.01-16.85Q482.46-14.9 483.46-12.35 484.46-9.8 485.81-7.15 487.16-4.5 488.76-1.93 490.36 0.65 492.01 2.6L492.01 2.6 487.21 5.15Q484.66 1.9 482.91-0.95 481.16-3.8 479.83-6.58 478.51-9.35 477.46-12.2 476.41-15.05 475.31-18.3L475.31-18.3 475.46-18.65Q477.56-19.4 479.81-20.8 482.06-22.2 483.91-23.88 485.76-25.55 486.96-27.43 488.16-29.3 488.16-31.05L488.16-31.05Q488.16-31.5 488.06-31.95 487.96-32.4 487.86-32.8L487.86-32.8 493.06-33.95ZM465.41 0L471.91-33.45 477.76-33.45 471.26 0 465.41 0ZM499.41-33.45L505.21-33.45 501.21-12.95Q500.91-11.3 500.91-10L500.91-10Q500.91-6.95 502.43-5.33 503.96-3.7 506.66-3.7L506.66-3.7Q508.31-3.7 509.61-4.38 510.91-5.05 511.93-6.28 512.96-7.5 513.66-9.2 514.36-10.9 514.76-12.95L514.76-12.95 518.76-33.45 524.56-33.45 520.51-12.5Q520.01-9.9 518.91-7.55 517.81-5.2 515.96-3.45 514.11-1.7 511.46-0.65 508.81 0.4 505.21 0.4L505.21 0.4Q502.41 0.4 500.46-0.3 498.51-1 497.28-2.25 496.06-3.5 495.51-5.2 494.96-6.9 494.96-8.85L494.96-8.85Q494.96-10.5 495.36-12.5L495.36-12.5 499.41-33.45ZM553.85 0L555.75-12.75Q555.85-13.5 556.05-14.58 556.25-15.65 556.5-16.93 556.75-18.2 557.03-19.6 557.3-21 557.55-22.3L557.55-22.3Q556.85-21 556.13-19.58 555.4-18.15 554.68-16.88 553.95-15.6 553.35-14.55 552.75-13.5 552.4-12.9L552.4-12.9 544.6 0 540.55 0 537.7-12.75Q537.55-13.4 537.35-14.48 537.15-15.55 536.9-16.82 536.65-18.1 536.4-19.53 536.15-20.95 535.9-22.25L535.9-22.25Q535.7-20.9 535.5-19.48 535.3-18.05 535.13-16.78 534.95-15.5 534.78-14.48 534.6-13.45 534.45-12.9L534.45-12.9 531.6 0.15 525.8-0.7 533.85-33.45 538.55-33.45 542.7-12.8Q542.95-11.5 543.2-10.05 543.45-8.6 543.65-7.15L543.65-7.15Q544.4-8.55 545.15-10 545.9-11.45 546.7-12.8L546.7-12.8 558.85-33.45 563.5-33.45 559.75 0 553.85 0ZM563.95-0.95L582.2-33.45 586.75-33.45 593.15 0 587.05 0 585.6-9 574.4-9 569.65 0.4 563.95-0.95ZM585-13.15Q584.3-17.4 583.9-20.88 583.5-24.35 583.25-26.45L583.25-26.45Q582.1-24.25 580.32-20.8 578.55-17.35 576.45-13.15L576.45-13.15 585-13.15ZM595.15 0L601.65-33.65 606.3-33.25Q607.15-33.45 608.4-33.6 609.65-33.75 611.15-33.75L611.15-33.75Q613.35-33.75 615.17-33.38 617-33 618.32-32.15 619.65-31.3 620.37-29.9 621.1-28.5 621.1-26.45L621.1-26.45Q621.1-24 620.37-22.13 619.65-20.25 618.37-18.88 617.1-17.5 615.3-16.63 613.5-15.75 611.4-15.3L611.4-15.3Q612-13.35 613.07-10.98 614.15-8.6 615.55-6.2 616.95-3.8 618.52-1.5 620.1 0.8 621.65 2.65L621.65 2.65 616.95 5.15Q614.6 2.15 612.97-0.3 611.35-2.75 610.17-5.05 609-7.35 608.07-9.73 607.15-12.1 606.2-14.9L606.2-14.9Q605.65-14.9 605.05-14.9 604.45-14.9 603.8-14.95L603.8-14.95 600.95 0 595.15 0ZM609.6-29.75Q608.75-29.75 608.02-29.7 607.3-29.65 606.65-29.55L606.65-29.55 604.6-18.95 605.6-18.95Q610.1-18.95 612.5-20.33 614.9-21.7 614.9-25.25L614.9-25.25Q614.9-27.25 613.7-28.5 612.5-29.75 609.6-29.75L609.6-29.75Z" opacity="1" transform="matrix(1,0,0,1,0,0)" fill="#000000" class="wordmark-text-0" data-fill-palette-color="quaternary" id="text-0"></path></svg></g></svg></g><g transform="matrix(1,0,0,1,0,16.590819399103804)"><svg viewBox="0 0 213.1584412271571 8.29489965717816" height="8.29489965717816" width="213.1584412271571"><g transform="matrix(1,0,0,1,0,0)"><svg width="213.1584412271571" viewBox="0.29 -37.35 1235.94 48.09" height="8.29489965717816" data-palette-color="#000000"><path d="M0.88-26.37L0.88-26.37Q0.29-27.78 0.29-29.71 0.29-31.64 0.44-32.87 0.59-34.11 0.83-35.11L0.83-35.11Q1.42-37.35 2.27-37.35L2.27-37.35 23.78-37.35Q25.2-37.35 25.68-33.15L25.68-33.15Q25.81-31.98 25.81-30.74L25.81-30.74Q25.81-27.81 25.17-26.37L25.17-26.37Q23.07-32.89 19.73-34.72L19.73-34.72Q18.97-35.16 18.24-35.16 17.5-35.16 17.09-34.78 16.67-34.4 16.41-33.57L16.41-33.57Q15.97-32.1 15.97-30.05L15.97-30.05 15.97-20.9 15.99-13.43 15.99-6.35Q15.99-3.96 16.61-2.82 17.24-1.68 17.88-1.1 18.53-0.51 19.41 0L19.41 0 6.93 0Q8.69-1.44 9.18-2.37L9.18-2.37Q10.08-4.05 10.08-6.35L10.08-6.35 10.08-28.34Q10.08-32.18 9.79-33.29 9.5-34.4 9.08-34.78 8.67-35.16 7.93-35.16 7.2-35.16 6.45-34.73 5.69-34.3 4.97-33.61 4.25-32.91 3.6-31.99 2.95-31.08 2.42-30.1L2.42-30.1Q1.37-28.17 0.88-26.37ZM137.71 0L130.51 0Q131.63-3.86 131.63-13.26L131.63-13.26Q131.63-17.19 131.21-18.49 130.8-19.8 130.18-20.4 129.55-21 128.52-21 127.48-21 126.64-20.61 125.79-20.21 125.14-19.58L125.14-19.58Q123.89-18.41 123.11-16.46L123.11-16.46 123.11-11.79Q123.11-4.93 123.38-3.3L123.38-3.3Q123.7-1.15 124.04 0L124.04 0 116.83 0Q117.42-2.05 117.62-5.44L117.62-5.44Q118.06-13.94 118.06-17.96 118.06-21.97 118.03-23.45 118.01-24.93 117.96-26.39L117.96-26.39Q117.84-31.71 117.48-33.07 117.13-34.42 116.82-35.05 116.52-35.67 116.15-36.18L116.15-36.18 115.32-37.33 124.23-37.33Q123.55-34.86 123.44-32.74 123.33-30.62 123.28-29.28 123.23-27.95 123.18-26.49L123.18-26.49Q123.11-23.07 123.11-20.46L123.11-20.46Q125.04-23.71 128.21-24.76L128.21-24.76Q129.33-25.15 130.73-25.15 132.12-25.15 133.25-24.55 134.39-23.95 135.15-22.85L135.15-22.85Q136.71-20.63 136.71-16.77L136.71-16.77 136.71-14.16Q136.71-6.69 136.92-4.8 137.12-2.91 137.2-2.29L137.2-2.29Q137.37-1.22 137.71 0L137.71 0ZM248.27-8.3L248.27-8.3Q249.15-7.71 249.15-6.26 249.15-4.81 248.76-3.71 248.37-2.61 247.39-1.66L247.39-1.66Q245.19 0.49 240.7 0.49L240.7 0.49Q235.48 0.49 232.74-3.37L232.74-3.37Q230.33-6.81 230.33-12.67L230.33-12.67Q230.33-18.58 233.6-21.95L233.6-21.95Q236.7-25.15 242-25.15L242-25.15Q245.68-25.15 247.76-23L247.76-23Q249.39-21.29 249.39-19.06 249.39-16.82 248.53-15.03 247.66-13.23 245.97-11.94L245.97-11.94Q242.51-9.25 236.28-9.11L236.28-9.11Q236.79-4.2 239.36-2.54L239.36-2.54Q240.29-1.95 241.82-1.95 243.36-1.95 245.1-3.56 246.83-5.18 248.27-8.3ZM236.14-12.18L236.14-11.43Q243.85-11.94 243.85-18.9L243.85-18.9Q243.85-21.51 242.29-22.41L242.29-22.41Q241.75-22.71 240.87-22.71 239.99-22.71 239.1-22.17 238.21-21.63 237.55-20.41L237.55-20.41Q236.14-17.75 236.14-12.18L236.14-12.18ZM459.97 0L459.62-1.93Q456.96 0.49 452.86 0.49L452.86 0.49Q449.1 0.49 446.93-1.68L446.93-1.68Q444.68-3.93 444.68-8.02 444.68-12.11 445.88-15.17 447.08-18.24 449.03-20.31L449.03-20.31Q452.89-24.41 458.5-24.63L458.5-24.63Q458.31-32.15 458-33.26 457.7-34.38 457.39-35.02 457.09-35.67 456.7-36.21L456.7-36.21 455.87-37.35 464.78-37.35Q464.09-34.89 463.98-32.57 463.87-30.25 463.82-28.49 463.78-26.73 463.75-24.8L463.75-24.8Q463.68-21.58 463.68-18.4 463.68-15.21 463.69-13.57 463.7-11.94 463.75-10.47L463.75-10.47Q463.87-4.98 464.17-3.94 464.46-2.91 464.76-2.28 465.07-1.66 465.46-1.12L465.46-1.12 466.29 0 459.97 0ZM458.54-8.96Q458.65-12.72 458.65-16 458.65-19.29 458.57-22.27L458.57-22.27Q455.03-21.73 452.91-18.09L452.91-18.09Q450.79-14.48 450.79-8.98L450.79-8.98Q450.79-5.74 451.29-4.44 451.79-3.15 452.48-2.55 453.18-1.95 454.17-1.95 455.16-1.95 455.9-2.36 456.65-2.76 457.21-3.54L457.21-3.54Q458.43-5.2 458.54-8.96ZM574.7-8.3L574.7-8.3Q575.58-7.71 575.58-6.26 575.58-4.81 575.19-3.71 574.8-2.61 573.82-1.66L573.82-1.66Q571.63 0.49 567.13 0.49L567.13 0.49Q561.91 0.49 559.17-3.37L559.17-3.37Q556.76-6.81 556.76-12.67L556.76-12.67Q556.76-18.58 560.03-21.95L560.03-21.95Q563.13-25.15 568.43-25.15L568.43-25.15Q572.11-25.15 574.19-23L574.19-23Q575.82-21.29 575.82-19.06 575.82-16.82 574.96-15.03 574.09-13.23 572.41-11.94L572.41-11.94Q568.94-9.25 562.71-9.11L562.71-9.11Q563.23-4.2 565.79-2.54L565.79-2.54Q566.72-1.95 568.26-1.95 569.79-1.95 571.53-3.56 573.26-5.18 574.7-8.3ZM562.57-12.18L562.57-11.43Q570.28-11.94 570.28-18.9L570.28-18.9Q570.28-21.51 568.72-22.41L568.72-22.41Q568.18-22.71 567.3-22.71 566.43-22.71 565.53-22.17 564.64-21.63 563.98-20.41L563.98-20.41Q562.57-17.75 562.57-12.18L562.57-12.18ZM665.02-24.66L674.03-24.66Q673.59-23.58 673.59-22.3 673.59-21.02 673.79-20.03 673.98-19.04 674.32-17.72L674.32-17.72 676.96-8.35 677.89-5.35Q679.33-9.67 679.79-11.18L679.79-11.18 680.67-14.16Q682.11-19.07 682.11-20.24 682.11-21.41 682-21.96 681.89-22.51 681.7-22.95L681.7-22.95Q681.45-23.61 680.75-24.66L680.75-24.66 689.63-24.66Q687.83-22.17 687.22-20.92L687.22-20.92 686.31-19.07Q686.09-18.63 685.7-17.8L685.7-17.8Q680.92-6.88 680.92-3.17L680.92-3.17Q680.92-1.49 681.55 0L681.55 0 672.76 0Q673.35-0.93 673.46-1.75 673.57-2.56 673.57-3.43 673.57-4.3 673.13-5.93 672.69-7.57 671.98-9.64 671.27-11.72 670.36-14.03 669.44-16.33 668.49-18.43L668.49-18.43Q666.34-23.14 665.02-24.66L665.02-24.66ZM787.4-17.58L787.38-11.18Q787.38-3.27 788.33 0L788.33 0 781.13 0Q781.81-2.37 781.98-5.59L781.98-5.59Q782.35-13.38 782.35-17.68 782.35-21.97 782.32-23.45 782.3-24.93 782.27-26.42L782.27-26.42Q782.13-31.71 781.77-33.09 781.42-34.47 781.11-35.1 780.81-35.72 780.42-36.23L780.42-36.23 779.61-37.35 788.52-37.35Q787.84-34.89 787.73-32.63 787.62-30.37 787.56-28.64 787.5-26.9 787.45-25.02L787.45-25.02Q787.4-21.9 787.4-17.58L787.4-17.58ZM892.39-22.71Q890.2-22.71 889.23-20.51 888.27-18.31 888.27-13.11L888.27-13.11Q888.27-1.95 892.39-1.95L892.39-1.95Q894.59-1.95 895.56-4.93 896.52-7.91 896.52-13.11 896.52-18.31 895.56-20.51 894.59-22.71 892.39-22.71L892.39-22.71ZM882.12-14.04Q882.12-25.15 892.39-25.15 902.67-25.15 902.67-14.04L902.67-14.04Q902.67-7.3 899.84-3.37L899.84-3.37Q897.08 0.49 892.39 0.49 887.71 0.49 884.95-3.37L884.95-3.37Q882.12-7.3 882.12-14.04L882.12-14.04ZM1001.17-23.1L1001.17-23.1Q1003.91-25.15 1008.01-25.15L1008.01-25.15Q1013.82-25.15 1015.6-20.34L1015.6-20.34Q1016.19-18.75 1016.19-16.35 1016.19-13.94 1015.64-11.66 1015.09-9.38 1014.11-7.54 1013.14-5.71 1011.8-4.32 1010.47-2.93 1008.91-2L1008.91-2Q1005.79-0.12 1002.27-0.02L1002.27-0.02Q1002.32 1.29 1002.42 2.56L1002.42 2.56 1002.66 5.15Q1002.88 7.79 1004.18 9.62L1004.18 9.62 1005.01 10.74 996.09 10.74Q996.78 8.4 996.89 6.05 997 3.71 997.06 2.04 997.12 0.37 997.14-1.42L997.14-1.42Q997.24-5.57 997.24-8.69L997.24-8.69Q997.24-18.75 996.61-21L996.61-21Q996.22-22.39 995.61-23.22L995.61-23.22 994.58-24.66 1001.15-24.66Q1001-24.17 1001.17-23.1ZM1010.08-15.7L1010.08-15.7Q1010.08-22.71 1006.54-22.71L1006.54-22.71Q1004.79-22.71 1003.61-21.14L1003.61-21.14Q1002.34-19.46 1002.34-16.53L1002.34-16.53 1002.17-4.96 1002.17-3.61Q1002.17-2.95 1002.2-2.27L1002.2-2.27Q1005.74-2.81 1007.94-6.52L1007.94-6.52Q1010.08-10.18 1010.08-15.7ZM1125.92-8.3L1125.92-8.3Q1126.8-7.71 1126.8-6.26 1126.8-4.81 1126.41-3.71 1126.02-2.61 1125.04-1.66L1125.04-1.66Q1122.84 0.49 1118.35 0.49L1118.35 0.49Q1113.12 0.49 1110.39-3.37L1110.39-3.37Q1107.97-6.81 1107.97-12.67L1107.97-12.67Q1107.97-18.58 1111.24-21.95L1111.24-21.95Q1114.35-25.15 1119.64-25.15L1119.64-25.15Q1123.33-25.15 1125.4-23L1125.4-23Q1127.04-21.29 1127.04-19.06 1127.04-16.82 1126.17-15.03 1125.31-13.23 1123.62-11.94L1123.62-11.94Q1120.16-9.25 1113.93-9.11L1113.93-9.11Q1114.44-4.2 1117.01-2.54L1117.01-2.54Q1117.93-1.95 1119.47-1.95 1121.01-1.95 1122.74-3.56 1124.48-5.18 1125.92-8.3ZM1113.78-12.18L1113.78-11.43Q1121.5-11.94 1121.5-18.9L1121.5-18.9Q1121.5-21.51 1119.94-22.41L1119.94-22.41Q1119.4-22.71 1118.52-22.71 1117.64-22.71 1116.75-22.17 1115.86-21.63 1115.2-20.41L1115.2-20.41Q1113.78-17.75 1113.78-12.18L1113.78-12.18ZM1227.23 0L1220.02 0Q1221.15-3.86 1221.15-13.26L1221.15-13.26Q1221.15-19.95 1220.07-22.39L1220.07-22.39Q1219.63-23.39 1218.51-24.66L1218.51-24.66 1227.18-24.66Q1226.74-23.12 1226.47-20.43L1226.47-20.43Q1228.76-23.32 1232.86-24.51L1232.86-24.51Q1234.62-25.02 1235.43-26.12L1235.43-26.12Q1236.23-24.19 1236.23-22.8 1236.23-21.41 1236.09-20.23 1235.94-19.04 1235.65-17.92L1235.65-17.92Q1235.01-15.5 1233.96-14.16L1233.96-14.16Q1233.06-18.92 1231.16-19.73L1231.16-19.73Q1228.96-20.68 1226.86-17.14L1226.86-17.14Q1226.42-16.41 1226.13-15.58L1226.13-15.58Q1226.1-15.01 1226.1-14.43 1226.1-13.84 1226.1-13.26L1226.1-13.26Q1226.1-3.86 1227.23 0L1227.23 0Z" opacity="1" transform="matrix(1,0,0,1,0,0)" fill="#000000" class="slogan-text-1" data-fill-palette-color="quaternary" id="text-1"></path></svg></g></svg></g></svg></g></svg></g><g transform="matrix(1,0,0,1,79.04045404434156,0)"><svg viewBox="0 0 55.07753313847399 34.392063735781676" height="34.392063735781676" width="55.07753313847399"><g><svg xmlns="http://www.w3.org/2000/svg" xmlns:xlink="http://www.w3.org/1999/xlink" version="1.1" x="0" y="0" viewBox="-2.435429092741941e-7 18.78899975199379 100.00000121676717 62.443000248006214" enable-background="new 0 0 100 100" xml:space="preserve" id="icon-0" width="55.07753313847399" height="34.392063735781676" class="icon-icon-0" data-fill-palette-color="quaternary"><g fill="#000000" data-fill-palette-color="quaternary"><g fill="#000000" data-fill-palette-color="quaternary"><path d="M97.938 68.771H91.622V20.81A2.02 2.02 0 0 0 89.601 18.789H10.399A2.02 2.02 0 0 0 8.378 20.81V68.771H2.062A2.06 2.06 0 0 0 0 70.832V72.916C0 73.019 0.008 73.12 0.022 73.222 0.549 76.743 3.37 80.669 7.181 81.144 7.264 81.154 7.35 81.161 7.433 81.161L91.943 81.232H91.946C96.35 81.232 99.55 77.035 99.987 73.147 99.996 73.072 100 72.995 100 72.917V70.833A2.06 2.06 0 0 0 97.938 68.771M12.42 22.831H87.58V68.77H59.985C59.852 68.77 59.723 68.786 59.599 68.81H41.16A2 2 0 0 0 40.764 68.77H12.42zM91.948 77.107L7.586 77.036C6.125 76.775 4.562 74.876 4.152 72.893H39.238C39.94 74.139 41.255 74.978 42.757 74.978H57.99C59.492 74.978 60.806 74.139 61.51 72.893H95.86C95.538 74.926 93.854 77.107 91.948 77.107M38.84 37.498A2.083 2.083 0 0 0 35.893 37.498L27.204 46.187A2.085 2.085 0 0 0 27.204 49.135L35.893 57.823A2.08 2.08 0 0 0 38.841 57.823 2.083 2.083 0 0 0 38.841 54.876L31.625 47.661 38.841 40.445A2.084 2.084 0 0 0 38.84 37.498M59.361 57.823A2.08 2.08 0 0 0 62.309 57.823L70.997 49.135A2.085 2.085 0 0 0 70.997 46.187L62.309 37.498A2.083 2.083 0 1 0 59.362 40.445L66.577 47.661 59.362 54.876A2.083 2.083 0 0 0 59.361 57.823M41.793 62.275A2.085 2.085 0 0 0 44.59 61.343L57.096 36.332A2.083 2.083 0 0 0 56.163 33.536 2.087 2.087 0 0 0 53.366 34.468L40.861 59.479A2.083 2.083 0 0 0 41.793 62.275" fill="#000000" data-fill-palette-color="quaternary"></path></g></g></svg></g></svg></g><g></g></svg></g></svg></g></svg></g></svg></g><defs></defs><mask id="65ed5e7f-e058-41ac-a161-201b1cac9ab6"><g id="SvgjsG4662"><svg viewBox="0 0 342.85155851775386 342.85155851775386" height="342.85155851775386" width="342.85155851775386"><g><svg></svg></g><g><svg viewBox="0 0 342.85155851775386 342.85155851775386" height="342.85155851775386" width="342.85155851775386"><g><path d="M0 171.426c0-94.676 76.75-171.426 171.426-171.426 94.676 0 171.426 76.75 171.426 171.426 0 94.676-76.75 171.426-171.426 171.426-94.676 0-171.426-76.75-171.426-171.426zM171.426 341.641c94.007 0 170.215-76.208 170.215-170.215 0-94.007-76.208-170.215-170.215-170.216-94.007 0-170.215 76.208-170.216 170.216 0 94.007 76.208 170.215 170.216 170.215z" fill="white" stroke="transparent"></path><ellipse rx="164.56874808852186" ry="164.56874808852186" cx="171.42577925887693" cy="171.42577925887693" fill="white" stroke="transparent" stroke-width="0" fill-opacity="1"></ellipse></g><g transform="matrix(1,0,0,1,64.84655864529837,140.20256202832408)"><svg viewBox="0 0 213.1584412271571 62.446434461105696" height="62.446434461105696" width="213.1584412271571"><g><svg viewBox="0 0 213.1584412271571 62.446434461105696" height="62.446434461105696" width="213.1584412271571"><g><svg viewBox="0 0 213.1584412271571 62.446434461105696" height="62.446434461105696" width="213.1584412271571"><g transform="matrix(1,0,0,1,0,37.56071540482373)"><svg viewBox="0 0 213.1584412271571 24.885719056281964" height="24.885719056281964" width="213.1584412271571"><g id="SvgjsG4661"><svg viewBox="0 0 213.1584412271571 24.885719056281964" height="24.885719056281964" width="213.1584412271571" id="SvgjsSvg4660"><g><svg viewBox="0 0 213.1584412271571 13.422167730061748" height="13.422167730061748" width="213.1584412271571"><g transform="matrix(1,0,0,1,0,0)"><svg width="213.1584412271571" viewBox="0.75 -33.95 620.9 39.1" height="13.422167730061748" data-palette-color="#000000"><path d="M23.15-16.3L26.35-33.7 31.9-32.8 25.7 0.05 21.25 0.05 13.2-17.15Q12.5-18.55 11.75-20.38 11-22.2 10.35-23.8L10.35-23.8Q10.2-22.2 10-20.43 9.8-18.65 9.5-17.05L9.5-17.05 6.3 0.2 0.75-0.7 6.95-33.45 11.45-33.45 19.3-16.45Q20-15 20.78-13.13 21.55-11.25 22.25-9.65L22.25-9.65Q22.45-11.4 22.68-13.2 22.9-15 23.15-16.3L23.15-16.3ZM33.65 0L40.15-33.45 45.95-33.45 39.45 0 33.65 0ZM75.25 0L77.15-12.75Q77.25-13.5 77.45-14.58 77.65-15.65 77.9-16.93 78.15-18.2 78.42-19.6 78.7-21 78.95-22.3L78.95-22.3Q78.25-21 77.52-19.58 76.8-18.15 76.07-16.88 75.35-15.6 74.75-14.55 74.15-13.5 73.8-12.9L73.8-12.9 66 0 61.95 0 59.1-12.75Q58.95-13.4 58.75-14.48 58.55-15.55 58.3-16.82 58.05-18.1 57.8-19.53 57.55-20.95 57.3-22.25L57.3-22.25Q57.1-20.9 56.9-19.48 56.7-18.05 56.52-16.78 56.35-15.5 56.17-14.48 56-13.45 55.85-12.9L55.85-12.9 53 0.15 47.2-0.7 55.25-33.45 59.95-33.45 64.1-12.8Q64.35-11.5 64.6-10.05 64.85-8.6 65.05-7.15L65.05-7.15Q65.8-8.55 66.55-10 67.3-11.45 68.1-12.8L68.1-12.8 80.25-33.45 84.9-33.45 81.15 0 75.25 0ZM85.34-0.95L103.59-33.45 108.14-33.45 114.54 0 108.44 0 106.99-9 95.79-9 91.04 0.4 85.34-0.95ZM106.39-13.15Q105.69-17.4 105.29-20.88 104.89-24.35 104.64-26.45L104.64-26.45Q103.49-24.25 101.72-20.8 99.94-17.35 97.84-13.15L97.84-13.15 106.39-13.15ZM116.79 0L123.29-33.45 129.09-33.45 123.34-4.2 135.29-4.2 135.29 0 116.79 0ZM176.19-33.95Q176.59-33.25 176.71-32.48 176.84-31.7 176.84-30.95L176.84-30.95Q176.84-28.45 175.59-26.18 174.34-23.9 172.54-22.03 170.74-20.15 168.71-18.8 166.69-17.45 165.14-16.85L165.14-16.85Q165.59-14.9 166.59-12.35 167.59-9.8 168.94-7.15 170.29-4.5 171.89-1.93 173.49 0.65 175.14 2.6L175.14 2.6 170.34 5.15Q167.79 1.9 166.04-0.95 164.29-3.8 162.96-6.58 161.64-9.35 160.59-12.2 159.54-15.05 158.44-18.3L158.44-18.3 158.59-18.65Q160.69-19.4 162.94-20.8 165.19-22.2 167.04-23.88 168.89-25.55 170.09-27.43 171.29-29.3 171.29-31.05L171.29-31.05Q171.29-31.5 171.19-31.95 171.09-32.4 170.99-32.8L170.99-32.8 176.19-33.95ZM148.54 0L155.04-33.45 160.89-33.45 154.39 0 148.54 0ZM182.53-33.45L188.33-33.45 184.33-12.95Q184.03-11.3 184.03-10L184.03-10Q184.03-6.95 185.56-5.33 187.08-3.7 189.78-3.7L189.78-3.7Q191.43-3.7 192.73-4.38 194.03-5.05 195.06-6.28 196.08-7.5 196.78-9.2 197.48-10.9 197.88-12.95L197.88-12.95 201.88-33.45 207.68-33.45 203.63-12.5Q203.13-9.9 202.03-7.55 200.93-5.2 199.08-3.45 197.23-1.7 194.58-0.65 191.93 0.4 188.33 0.4L188.33 0.4Q185.53 0.4 183.58-0.3 181.63-1 180.41-2.25 179.18-3.5 178.63-5.2 178.08-6.9 178.08-8.85L178.08-8.85Q178.08-10.5 178.48-12.5L178.48-12.5 182.53-33.45ZM236.98 0L238.88-12.75Q238.98-13.5 239.18-14.58 239.38-15.65 239.63-16.93 239.88-18.2 240.16-19.6 240.43-21 240.68-22.3L240.68-22.3Q239.98-21 239.26-19.58 238.53-18.15 237.81-16.88 237.08-15.6 236.48-14.55 235.88-13.5 235.53-12.9L235.53-12.9 227.73 0 223.68 0 220.83-12.75Q220.68-13.4 220.48-14.48 220.28-15.55 220.03-16.82 219.78-18.1 219.53-19.53 219.28-20.95 219.03-22.25L219.03-22.25Q218.83-20.9 218.63-19.48 218.43-18.05 218.26-16.78 218.08-15.5 217.91-14.48 217.73-13.45 217.58-12.9L217.58-12.9 214.73 0.15 208.93-0.7 216.98-33.45 221.68-33.45 225.83-12.8Q226.08-11.5 226.33-10.05 226.58-8.6 226.78-7.15L226.78-7.15Q227.53-8.55 228.28-10 229.03-11.45 229.83-12.8L229.83-12.8 241.98-33.45 246.63-33.45 242.88 0 236.98 0ZM247.08-0.95L265.33-33.45 269.88-33.45 276.28 0 270.18 0 268.73-9 257.53-9 252.78 0.4 247.08-0.95ZM268.13-13.15Q267.43-17.4 267.03-20.88 266.63-24.35 266.38-26.45L266.38-26.45Q265.23-24.25 263.45-20.8 261.68-17.35 259.58-13.15L259.58-13.15 268.13-13.15ZM278.28 0L284.78-33.65 289.43-33.25Q290.28-33.45 291.53-33.6 292.78-33.75 294.28-33.75L294.28-33.75Q296.48-33.75 298.3-33.38 300.13-33 301.45-32.15 302.78-31.3 303.5-29.9 304.23-28.5 304.23-26.45L304.23-26.45Q304.23-24 303.5-22.13 302.78-20.25 301.5-18.88 300.23-17.5 298.43-16.63 296.63-15.75 294.53-15.3L294.53-15.3Q295.13-13.35 296.2-10.98 297.28-8.6 298.68-6.2 300.08-3.8 301.65-1.5 303.23 0.8 304.78 2.65L304.78 2.65 300.08 5.15Q297.73 2.15 296.1-0.3 294.48-2.75 293.3-5.05 292.13-7.35 291.2-9.73 290.28-12.1 289.33-14.9L289.33-14.9Q288.78-14.9 288.18-14.9 287.58-14.9 286.93-14.95L286.93-14.95 284.08 0 278.28 0ZM292.73-29.75Q291.88-29.75 291.15-29.7 290.43-29.65 289.78-29.55L289.78-29.55 287.73-18.95 288.73-18.95Q293.23-18.95 295.63-20.33 298.03-21.7 298.03-25.25L298.03-25.25Q298.03-27.25 296.83-28.5 295.63-29.75 292.73-29.75L292.73-29.75ZM305.07 0L311.57-33.65 316.22-33.25Q317.07-33.45 318.32-33.6 319.57-33.75 321.07-33.75L321.07-33.75Q323.27-33.75 325.1-33.38 326.92-33 328.25-32.15 329.57-31.3 330.3-29.9 331.02-28.5 331.02-26.45L331.02-26.45Q331.02-24 330.3-22.13 329.57-20.25 328.3-18.88 327.02-17.5 325.22-16.63 323.42-15.75 321.32-15.3L321.32-15.3Q321.92-13.35 323-10.98 324.07-8.6 325.47-6.2 326.87-3.8 328.45-1.5 330.02 0.8 331.57 2.65L331.57 2.65 326.87 5.15Q324.52 2.15 322.9-0.3 321.27-2.75 320.1-5.05 318.92-7.35 318-9.73 317.07-12.1 316.12-14.9L316.12-14.9Q315.57-14.9 314.97-14.9 314.37-14.9 313.72-14.95L313.72-14.95 310.87 0 305.07 0ZM319.52-29.75Q318.67-29.75 317.95-29.7 317.22-29.65 316.57-29.55L316.57-29.55 314.52-18.95 315.52-18.95Q320.02-18.95 322.42-20.33 324.82-21.7 324.82-25.25L324.82-25.25Q324.82-27.25 323.62-28.5 322.42-29.75 319.52-29.75L319.52-29.75ZM341.17-0.95L359.42-33.45 363.97-33.45 370.37 0 364.27 0 362.82-9 351.62-9 346.87 0.4 341.17-0.95ZM362.22-13.15Q361.52-17.4 361.12-20.88 360.72-24.35 360.47-26.45L360.47-26.45Q359.32-24.25 357.54-20.8 355.77-17.35 353.67-13.15L353.67-13.15 362.22-13.15ZM372.37 0L378.87-33.65 383.52-33.25Q384.37-33.45 385.62-33.6 386.87-33.75 388.37-33.75L388.37-33.75Q390.57-33.75 392.39-33.38 394.22-33 395.54-32.15 396.87-31.3 397.59-29.9 398.32-28.5 398.32-26.45L398.32-26.45Q398.32-24 397.59-22.13 396.87-20.25 395.59-18.88 394.32-17.5 392.52-16.63 390.72-15.75 388.62-15.3L388.62-15.3Q389.22-13.35 390.29-10.98 391.37-8.6 392.77-6.2 394.17-3.8 395.74-1.5 397.32 0.8 398.87 2.65L398.87 2.65 394.17 5.15Q391.82 2.15 390.19-0.3 388.57-2.75 387.39-5.05 386.22-7.35 385.29-9.73 384.37-12.1 383.42-14.9L383.42-14.9Q382.87-14.9 382.27-14.9 381.67-14.9 381.02-14.95L381.02-14.95 378.17 0 372.37 0ZM386.82-29.75Q385.97-29.75 385.24-29.7 384.52-29.65 383.87-29.55L383.87-29.55 381.82-18.95 382.82-18.95Q387.32-18.95 389.72-20.33 392.12-21.7 392.12-25.25L392.12-25.25Q392.12-27.25 390.92-28.5 389.72-29.75 386.82-29.75L386.82-29.75ZM405.86-33.45L411.66-33.45 407.66-12.95Q407.36-11.3 407.36-10L407.36-10Q407.36-6.95 408.89-5.33 410.41-3.7 413.11-3.7L413.11-3.7Q414.76-3.7 416.06-4.38 417.36-5.05 418.39-6.28 419.41-7.5 420.11-9.2 420.81-10.9 421.21-12.95L421.21-12.95 425.21-33.45 431.01-33.45 426.96-12.5Q426.46-9.9 425.36-7.55 424.26-5.2 422.41-3.45 420.56-1.7 417.91-0.65 415.26 0.4 411.66 0.4L411.66 0.4Q408.86 0.4 406.91-0.3 404.96-1 403.74-2.25 402.51-3.5 401.96-5.2 401.41-6.9 401.41-8.85L401.41-8.85Q401.41-10.5 401.81-12.5L401.81-12.5 405.86-33.45ZM454.91-16.3L458.11-33.7 463.66-32.8 457.46 0.05 453.01 0.05 444.96-17.15Q444.26-18.55 443.51-20.38 442.76-22.2 442.11-23.8L442.11-23.8Q441.96-22.2 441.76-20.43 441.56-18.65 441.26-17.05L441.26-17.05 438.06 0.2 432.51-0.7 438.71-33.45 443.21-33.45 451.06-16.45Q451.76-15 452.54-13.13 453.31-11.25 454.01-9.65L454.01-9.65Q454.21-11.4 454.44-13.2 454.66-15 454.91-16.3L454.91-16.3ZM493.06-33.95Q493.46-33.25 493.58-32.48 493.71-31.7 493.71-30.95L493.71-30.95Q493.71-28.45 492.46-26.18 491.21-23.9 489.41-22.03 487.61-20.15 485.58-18.8 483.56-17.45 482.01-16.85L482.01-16.85Q482.46-14.9 483.46-12.35 484.46-9.8 485.81-7.15 487.16-4.5 488.76-1.93 490.36 0.65 492.01 2.6L492.01 2.6 487.21 5.15Q484.66 1.9 482.91-0.95 481.16-3.8 479.83-6.58 478.51-9.35 477.46-12.2 476.41-15.05 475.31-18.3L475.31-18.3 475.46-18.65Q477.56-19.4 479.81-20.8 482.06-22.2 483.91-23.88 485.76-25.55 486.96-27.43 488.16-29.3 488.16-31.05L488.16-31.05Q488.16-31.5 488.06-31.95 487.96-32.4 487.86-32.8L487.86-32.8 493.06-33.95ZM465.41 0L471.91-33.45 477.76-33.45 471.26 0 465.41 0ZM499.41-33.45L505.21-33.45 501.21-12.95Q500.91-11.3 500.91-10L500.91-10Q500.91-6.95 502.43-5.33 503.96-3.7 506.66-3.7L506.66-3.7Q508.31-3.7 509.61-4.38 510.91-5.05 511.93-6.28 512.96-7.5 513.66-9.2 514.36-10.9 514.76-12.95L514.76-12.95 518.76-33.45 524.56-33.45 520.51-12.5Q520.01-9.9 518.91-7.55 517.81-5.2 515.96-3.45 514.11-1.7 511.46-0.65 508.81 0.4 505.21 0.4L505.21 0.4Q502.41 0.4 500.46-0.3 498.51-1 497.28-2.25 496.06-3.5 495.51-5.2 494.96-6.9 494.96-8.85L494.96-8.85Q494.96-10.5 495.36-12.5L495.36-12.5 499.41-33.45ZM553.85 0L555.75-12.75Q555.85-13.5 556.05-14.58 556.25-15.65 556.5-16.93 556.75-18.2 557.03-19.6 557.3-21 557.55-22.3L557.55-22.3Q556.85-21 556.13-19.58 555.4-18.15 554.68-16.88 553.95-15.6 553.35-14.55 552.75-13.5 552.4-12.9L552.4-12.9 544.6 0 540.55 0 537.7-12.75Q537.55-13.4 537.35-14.48 537.15-15.55 536.9-16.82 536.65-18.1 536.4-19.53 536.15-20.95 535.9-22.25L535.9-22.25Q535.7-20.9 535.5-19.48 535.3-18.05 535.13-16.78 534.95-15.5 534.78-14.48 534.6-13.45 534.45-12.9L534.45-12.9 531.6 0.15 525.8-0.7 533.85-33.45 538.55-33.45 542.7-12.8Q542.95-11.5 543.2-10.05 543.45-8.6 543.65-7.15L543.65-7.15Q544.4-8.55 545.15-10 545.9-11.45 546.7-12.8L546.7-12.8 558.85-33.45 563.5-33.45 559.75 0 553.85 0ZM563.95-0.95L582.2-33.45 586.75-33.45 593.15 0 587.05 0 585.6-9 574.4-9 569.65 0.4 563.95-0.95ZM585-13.15Q584.3-17.4 583.9-20.88 583.5-24.35 583.25-26.45L583.25-26.45Q582.1-24.25 580.32-20.8 578.55-17.35 576.45-13.15L576.45-13.15 585-13.15ZM595.15 0L601.65-33.65 606.3-33.25Q607.15-33.45 608.4-33.6 609.65-33.75 611.15-33.75L611.15-33.75Q613.35-33.75 615.17-33.38 617-33 618.32-32.15 619.65-31.3 620.37-29.9 621.1-28.5 621.1-26.45L621.1-26.45Q621.1-24 620.37-22.13 619.65-20.25 618.37-18.88 617.1-17.5 615.3-16.63 613.5-15.75 611.4-15.3L611.4-15.3Q612-13.35 613.07-10.98 614.15-8.6 615.55-6.2 616.95-3.8 618.52-1.5 620.1 0.8 621.65 2.65L621.65 2.65 616.95 5.15Q614.6 2.15 612.97-0.3 611.35-2.75 610.17-5.05 609-7.35 608.07-9.73 607.15-12.1 606.2-14.9L606.2-14.9Q605.65-14.9 605.05-14.9 604.45-14.9 603.8-14.95L603.8-14.95 600.95 0 595.15 0ZM609.6-29.75Q608.75-29.75 608.02-29.7 607.3-29.65 606.65-29.55L606.65-29.55 604.6-18.95 605.6-18.95Q610.1-18.95 612.5-20.33 614.9-21.7 614.9-25.25L614.9-25.25Q614.9-27.25 613.7-28.5 612.5-29.75 609.6-29.75L609.6-29.75Z" opacity="1" transform="matrix(1,0,0,1,0,0)" fill="black" class="wordmark-text-0" id="SvgjsPath4659"></path></svg></g></svg></g><g transform="matrix(1,0,0,1,0,16.590819399103804)"><svg viewBox="0 0 213.1584412271571 8.29489965717816" height="8.29489965717816" width="213.1584412271571"><g transform="matrix(1,0,0,1,0,0)"><svg width="213.1584412271571" viewBox="0.29 -37.35 1235.94 48.09" height="8.29489965717816" data-palette-color="#000000"><path d="M0.88-26.37L0.88-26.37Q0.29-27.78 0.29-29.71 0.29-31.64 0.44-32.87 0.59-34.11 0.83-35.11L0.83-35.11Q1.42-37.35 2.27-37.35L2.27-37.35 23.78-37.35Q25.2-37.35 25.68-33.15L25.68-33.15Q25.81-31.98 25.81-30.74L25.81-30.74Q25.81-27.81 25.17-26.37L25.17-26.37Q23.07-32.89 19.73-34.72L19.73-34.72Q18.97-35.16 18.24-35.16 17.5-35.16 17.09-34.78 16.67-34.4 16.41-33.57L16.41-33.57Q15.97-32.1 15.97-30.05L15.97-30.05 15.97-20.9 15.99-13.43 15.99-6.35Q15.99-3.96 16.61-2.82 17.24-1.68 17.88-1.1 18.53-0.51 19.41 0L19.41 0 6.93 0Q8.69-1.44 9.18-2.37L9.18-2.37Q10.08-4.05 10.08-6.35L10.08-6.35 10.08-28.34Q10.08-32.18 9.79-33.29 9.5-34.4 9.08-34.78 8.67-35.16 7.93-35.16 7.2-35.16 6.45-34.73 5.69-34.3 4.97-33.61 4.25-32.91 3.6-31.99 2.95-31.08 2.42-30.1L2.42-30.1Q1.37-28.17 0.88-26.37ZM137.71 0L130.51 0Q131.63-3.86 131.63-13.26L131.63-13.26Q131.63-17.19 131.21-18.49 130.8-19.8 130.18-20.4 129.55-21 128.52-21 127.48-21 126.64-20.61 125.79-20.21 125.14-19.58L125.14-19.58Q123.89-18.41 123.11-16.46L123.11-16.46 123.11-11.79Q123.11-4.93 123.38-3.3L123.38-3.3Q123.7-1.15 124.04 0L124.04 0 116.83 0Q117.42-2.05 117.62-5.44L117.62-5.44Q118.06-13.94 118.06-17.96 118.06-21.97 118.03-23.45 118.01-24.93 117.96-26.39L117.96-26.39Q117.84-31.71 117.48-33.07 117.13-34.42 116.82-35.05 116.52-35.67 116.15-36.18L116.15-36.18 115.32-37.33 124.23-37.33Q123.55-34.86 123.44-32.74 123.33-30.62 123.28-29.28 123.23-27.95 123.18-26.49L123.18-26.49Q123.11-23.07 123.11-20.46L123.11-20.46Q125.04-23.71 128.21-24.76L128.21-24.76Q129.33-25.15 130.73-25.15 132.12-25.15 133.25-24.55 134.39-23.95 135.15-22.85L135.15-22.85Q136.71-20.63 136.71-16.77L136.71-16.77 136.71-14.16Q136.71-6.69 136.92-4.8 137.12-2.91 137.2-2.29L137.2-2.29Q137.37-1.22 137.71 0L137.71 0ZM248.27-8.3L248.27-8.3Q249.15-7.71 249.15-6.26 249.15-4.81 248.76-3.71 248.37-2.61 247.39-1.66L247.39-1.66Q245.19 0.49 240.7 0.49L240.7 0.49Q235.48 0.49 232.74-3.37L232.74-3.37Q230.33-6.81 230.33-12.67L230.33-12.67Q230.33-18.58 233.6-21.95L233.6-21.95Q236.7-25.15 242-25.15L242-25.15Q245.68-25.15 247.76-23L247.76-23Q249.39-21.29 249.39-19.06 249.39-16.82 248.53-15.03 247.66-13.23 245.97-11.94L245.97-11.94Q242.51-9.25 236.28-9.11L236.28-9.11Q236.79-4.2 239.36-2.54L239.36-2.54Q240.29-1.95 241.82-1.95 243.36-1.95 245.1-3.56 246.83-5.18 248.27-8.3ZM236.14-12.18L236.14-11.43Q243.85-11.94 243.85-18.9L243.85-18.9Q243.85-21.51 242.29-22.41L242.29-22.41Q241.75-22.71 240.87-22.71 239.99-22.71 239.1-22.17 238.21-21.63 237.55-20.41L237.55-20.41Q236.14-17.75 236.14-12.18L236.14-12.18ZM459.97 0L459.62-1.93Q456.96 0.49 452.86 0.49L452.86 0.49Q449.1 0.49 446.93-1.68L446.93-1.68Q444.68-3.93 444.68-8.02 444.68-12.11 445.88-15.17 447.08-18.24 449.03-20.31L449.03-20.31Q452.89-24.41 458.5-24.63L458.5-24.63Q458.31-32.15 458-33.26 457.7-34.38 457.39-35.02 457.09-35.67 456.7-36.21L456.7-36.21 455.87-37.35 464.78-37.35Q464.09-34.89 463.98-32.57 463.87-30.25 463.82-28.49 463.78-26.73 463.75-24.8L463.75-24.8Q463.68-21.58 463.68-18.4 463.68-15.21 463.69-13.57 463.7-11.94 463.75-10.47L463.75-10.47Q463.87-4.98 464.17-3.94 464.46-2.91 464.76-2.28 465.07-1.66 465.46-1.12L465.46-1.12 466.29 0 459.97 0ZM458.54-8.96Q458.65-12.72 458.65-16 458.65-19.29 458.57-22.27L458.57-22.27Q455.03-21.73 452.91-18.09L452.91-18.09Q450.79-14.48 450.79-8.98L450.79-8.98Q450.79-5.74 451.29-4.44 451.79-3.15 452.48-2.55 453.18-1.95 454.17-1.95 455.16-1.95 455.9-2.36 456.65-2.76 457.21-3.54L457.21-3.54Q458.43-5.2 458.54-8.96ZM574.7-8.3L574.7-8.3Q575.58-7.71 575.58-6.26 575.58-4.81 575.19-3.71 574.8-2.61 573.82-1.66L573.82-1.66Q571.63 0.49 567.13 0.49L567.13 0.49Q561.91 0.49 559.17-3.37L559.17-3.37Q556.76-6.81 556.76-12.67L556.76-12.67Q556.76-18.58 560.03-21.95L560.03-21.95Q563.13-25.15 568.43-25.15L568.43-25.15Q572.11-25.15 574.19-23L574.19-23Q575.82-21.29 575.82-19.06 575.82-16.82 574.96-15.03 574.09-13.23 572.41-11.94L572.41-11.94Q568.94-9.25 562.71-9.11L562.71-9.11Q563.23-4.2 565.79-2.54L565.79-2.54Q566.72-1.95 568.26-1.95 569.79-1.95 571.53-3.56 573.26-5.18 574.7-8.3ZM562.57-12.18L562.57-11.43Q570.28-11.94 570.28-18.9L570.28-18.9Q570.28-21.51 568.72-22.41L568.72-22.41Q568.18-22.71 567.3-22.71 566.43-22.71 565.53-22.17 564.64-21.63 563.98-20.41L563.98-20.41Q562.57-17.75 562.57-12.18L562.57-12.18ZM665.02-24.66L674.03-24.66Q673.59-23.58 673.59-22.3 673.59-21.02 673.79-20.03 673.98-19.04 674.32-17.72L674.32-17.72 676.96-8.35 677.89-5.35Q679.33-9.67 679.79-11.18L679.79-11.18 680.67-14.16Q682.11-19.07 682.11-20.24 682.11-21.41 682-21.96 681.89-22.51 681.7-22.95L681.7-22.95Q681.45-23.61 680.75-24.66L680.75-24.66 689.63-24.66Q687.83-22.17 687.22-20.92L687.22-20.92 686.31-19.07Q686.09-18.63 685.7-17.8L685.7-17.8Q680.92-6.88 680.92-3.17L680.92-3.17Q680.92-1.49 681.55 0L681.55 0 672.76 0Q673.35-0.93 673.46-1.75 673.57-2.56 673.57-3.43 673.57-4.3 673.13-5.93 672.69-7.57 671.98-9.64 671.27-11.72 670.36-14.03 669.44-16.33 668.49-18.43L668.49-18.43Q666.34-23.14 665.02-24.66L665.02-24.66ZM787.4-17.58L787.38-11.18Q787.38-3.27 788.33 0L788.33 0 781.13 0Q781.81-2.37 781.98-5.59L781.98-5.59Q782.35-13.38 782.35-17.68 782.35-21.97 782.32-23.45 782.3-24.93 782.27-26.42L782.27-26.42Q782.13-31.71 781.77-33.09 781.42-34.47 781.11-35.1 780.81-35.72 780.42-36.23L780.42-36.23 779.61-37.35 788.52-37.35Q787.84-34.89 787.73-32.63 787.62-30.37 787.56-28.64 787.5-26.9 787.45-25.02L787.45-25.02Q787.4-21.9 787.4-17.58L787.4-17.58ZM892.39-22.71Q890.2-22.71 889.23-20.51 888.27-18.31 888.27-13.11L888.27-13.11Q888.27-1.95 892.39-1.95L892.39-1.95Q894.59-1.95 895.56-4.93 896.52-7.91 896.52-13.11 896.52-18.31 895.56-20.51 894.59-22.71 892.39-22.71L892.39-22.71ZM882.12-14.04Q882.12-25.15 892.39-25.15 902.67-25.15 902.67-14.04L902.67-14.04Q902.67-7.3 899.84-3.37L899.84-3.37Q897.08 0.49 892.39 0.49 887.71 0.49 884.95-3.37L884.95-3.37Q882.12-7.3 882.12-14.04L882.12-14.04ZM1001.17-23.1L1001.17-23.1Q1003.91-25.15 1008.01-25.15L1008.01-25.15Q1013.82-25.15 1015.6-20.34L1015.6-20.34Q1016.19-18.75 1016.19-16.35 1016.19-13.94 1015.64-11.66 1015.09-9.38 1014.11-7.54 1013.14-5.71 1011.8-4.32 1010.47-2.93 1008.91-2L1008.91-2Q1005.79-0.12 1002.27-0.02L1002.27-0.02Q1002.32 1.29 1002.42 2.56L1002.42 2.56 1002.66 5.15Q1002.88 7.79 1004.18 9.62L1004.18 9.62 1005.01 10.74 996.09 10.74Q996.78 8.4 996.89 6.05 997 3.71 997.06 2.04 997.12 0.37 997.14-1.42L997.14-1.42Q997.24-5.57 997.24-8.69L997.24-8.69Q997.24-18.75 996.61-21L996.61-21Q996.22-22.39 995.61-23.22L995.61-23.22 994.58-24.66 1001.15-24.66Q1001-24.17 1001.17-23.1ZM1010.08-15.7L1010.08-15.7Q1010.08-22.71 1006.54-22.71L1006.54-22.71Q1004.79-22.71 1003.61-21.14L1003.61-21.14Q1002.34-19.46 1002.34-16.53L1002.34-16.53 1002.17-4.96 1002.17-3.61Q1002.17-2.95 1002.2-2.27L1002.2-2.27Q1005.74-2.81 1007.94-6.52L1007.94-6.52Q1010.08-10.18 1010.08-15.7ZM1125.92-8.3L1125.92-8.3Q1126.8-7.71 1126.8-6.26 1126.8-4.81 1126.41-3.71 1126.02-2.61 1125.04-1.66L1125.04-1.66Q1122.84 0.49 1118.35 0.49L1118.35 0.49Q1113.12 0.49 1110.39-3.37L1110.39-3.37Q1107.97-6.81 1107.97-12.67L1107.97-12.67Q1107.97-18.58 1111.24-21.95L1111.24-21.95Q1114.35-25.15 1119.64-25.15L1119.64-25.15Q1123.33-25.15 1125.4-23L1125.4-23Q1127.04-21.29 1127.04-19.06 1127.04-16.82 1126.17-15.03 1125.31-13.23 1123.62-11.94L1123.62-11.94Q1120.16-9.25 1113.93-9.11L1113.93-9.11Q1114.44-4.2 1117.01-2.54L1117.01-2.54Q1117.93-1.95 1119.47-1.95 1121.01-1.95 1122.74-3.56 1124.48-5.18 1125.92-8.3ZM1113.78-12.18L1113.78-11.43Q1121.5-11.94 1121.5-18.9L1121.5-18.9Q1121.5-21.51 1119.94-22.41L1119.94-22.41Q1119.4-22.71 1118.52-22.71 1117.64-22.71 1116.75-22.17 1115.86-21.63 1115.2-20.41L1115.2-20.41Q1113.78-17.75 1113.78-12.18L1113.78-12.18ZM1227.23 0L1220.02 0Q1221.15-3.86 1221.15-13.26L1221.15-13.26Q1221.15-19.95 1220.07-22.39L1220.07-22.39Q1219.63-23.39 1218.51-24.66L1218.51-24.66 1227.18-24.66Q1226.74-23.12 1226.47-20.43L1226.47-20.43Q1228.76-23.32 1232.86-24.51L1232.86-24.51Q1234.62-25.02 1235.43-26.12L1235.43-26.12Q1236.23-24.19 1236.23-22.8 1236.23-21.41 1236.09-20.23 1235.94-19.04 1235.65-17.92L1235.65-17.92Q1235.01-15.5 1233.96-14.16L1233.96-14.16Q1233.06-18.92 1231.16-19.73L1231.16-19.73Q1228.96-20.68 1226.86-17.14L1226.86-17.14Q1226.42-16.41 1226.13-15.58L1226.13-15.58Q1226.1-15.01 1226.1-14.43 1226.1-13.84 1226.1-13.26L1226.1-13.26Q1226.1-3.86 1227.23 0L1227.23 0Z" opacity="1" transform="matrix(1,0,0,1,0,0)" fill="black" class="slogan-text-1" id="SvgjsPath4658"></path></svg></g></svg></g></svg></g></svg></g><g transform="matrix(1,0,0,1,79.04045404434156,0)"><svg viewBox="0 0 55.07753313847399 34.392063735781676" height="34.392063735781676" width="55.07753313847399"><g><svg xmlns="http://www.w3.org/2000/svg" xmlns:xlink="http://www.w3.org/1999/xlink" version="1.1" x="0" y="0" viewBox="-2.435429092741941e-7 18.78899975199379 100.00000121676717 62.443000248006214" enable-background="new 0 0 100 100" xml:space="preserve" id="SvgjsSvg4657" width="55.07753313847399" height="34.392063735781676" class="icon-icon-0" data-fill-palette-color="quaternary"><g fill="black"><g fill="black"><path d="M97.938 68.771H91.622V20.81A2.02 2.02 0 0 0 89.601 18.789H10.399A2.02 2.02 0 0 0 8.378 20.81V68.771H2.062A2.06 2.06 0 0 0 0 70.832V72.916C0 73.019 0.008 73.12 0.022 73.222 0.549 76.743 3.37 80.669 7.181 81.144 7.264 81.154 7.35 81.161 7.433 81.161L91.943 81.232H91.946C96.35 81.232 99.55 77.035 99.987 73.147 99.996 73.072 100 72.995 100 72.917V70.833A2.06 2.06 0 0 0 97.938 68.771M12.42 22.831H87.58V68.77H59.985C59.852 68.77 59.723 68.786 59.599 68.81H41.16A2 2 0 0 0 40.764 68.77H12.42zM91.948 77.107L7.586 77.036C6.125 76.775 4.562 74.876 4.152 72.893H39.238C39.94 74.139 41.255 74.978 42.757 74.978H57.99C59.492 74.978 60.806 74.139 61.51 72.893H95.86C95.538 74.926 93.854 77.107 91.948 77.107M38.84 37.498A2.083 2.083 0 0 0 35.893 37.498L27.204 46.187A2.085 2.085 0 0 0 27.204 49.135L35.893 57.823A2.08 2.08 0 0 0 38.841 57.823 2.083 2.083 0 0 0 38.841 54.876L31.625 47.661 38.841 40.445A2.084 2.084 0 0 0 38.84 37.498M59.361 57.823A2.08 2.08 0 0 0 62.309 57.823L70.997 49.135A2.085 2.085 0 0 0 70.997 46.187L62.309 37.498A2.083 2.083 0 1 0 59.362 40.445L66.577 47.661 59.362 54.876A2.083 2.083 0 0 0 59.361 57.823M41.793 62.275A2.085 2.085 0 0 0 44.59 61.343L57.096 36.332A2.083 2.083 0 0 0 56.163 33.536 2.087 2.087 0 0 0 53.366 34.468L40.861 59.479A2.083 2.083 0 0 0 41.793 62.275" fill="black"></path></g></g></svg></g></svg></g><g></g></svg></g></svg></g></svg></g></svg></g><defs><mask></mask></defs></svg><rect width="342.85155851775386" height="342.85155851775386" fill="black" stroke="none" visibility="hidden"></rect></g></mask><linearGradient x1="0" x2="1" y1="0.548" y2="0.55" id="5cbfd51b-1b61-4230-8f46-0d0bb4b82e85"><stop stop-color="#ff6cab" offset="0"></stop><stop stop-color="#7366ff" offset="1"></stop></linearGradient></svg><rect width="342.85155851775386" height="342.85155851775386" fill="none" stroke="none" visibility="hidden"></rect></g></svg></g></svg>